<svg xmlns="http://www.w3.org/2000/svg" width="197.999" height="151.007" viewBox="0 0 197.999 151.007"><title>Tools</title><path d="M46.608,113.3a.5.5,0,0,1-.354-.853l.092-.092a.5.5,0,1,1,.709.705l-.092.092A.5.5,0,0,1,46.608,113.3Zm1.5-1.509a.5.5,0,0,1-.354-.853l.177-.177a.5.5,0,0,1,.709.706l-.177.177A.5.5,0,0,1,48.111,111.795ZM49.7,110.2a.5.5,0,0,1-.354-.853l.177-.177a.5.5,0,0,1,.709.706l-.177.177A.5.5,0,0,1,49.7,110.2Zm1.588-1.594a.5.5,0,0,1-.354-.853l.177-.177a.5.5,0,0,1,.709.706l-.177.177A.5.5,0,0,1,51.287,108.606Zm1.588-1.594a.5.5,0,0,1-.355-.852l.176-.177a.5.5,0,0,1,.711.7l-.176.177A.5.5,0,0,1,52.875,107.012Zm1.588-1.594a.5.5,0,0,1-.355-.852l.176-.177a.5.5,0,0,1,.711.7l-.176.177A.5.5,0,0,1,54.463,105.418Zm1.588-1.594a.5.5,0,0,1-.355-.852l.176-.177a.5.5,0,0,1,.711.7l-.176.177A.5.5,0,0,1,56.051,103.823Zm1.587-1.594a.5.5,0,0,1-.354-.853l.177-.177a.5.5,0,0,1,.709.706l-.177.177A.5.5,0,0,1,57.638,102.229Zm1.588-1.594a.5.5,0,0,1-.354-.853l.177-.177a.5.5,0,0,1,.709.706l-.177.177A.5.5,0,0,1,59.225,100.635Zm1.588-1.594a.5.5,0,0,1-.354-.853l.177-.177a.5.5,0,0,1,.709.706l-.177.177A.5.5,0,0,1,60.813,99.041ZM62.4,97.446a.5.5,0,0,1-.354-.853l.177-.177a.5.5,0,0,1,.709.706l-.177.177A.5.5,0,0,1,62.4,97.446Zm1.588-1.594A.5.5,0,0,1,63.634,95l.176-.177a.5.5,0,0,1,.711.7l-.176.177A.5.5,0,0,1,63.989,95.852Zm1.588-1.594a.5.5,0,0,1-.355-.852l.176-.177a.5.5,0,0,1,.711.7l-.176.177A.5.5,0,0,1,65.577,94.258Zm1.587-1.594a.5.5,0,0,1-.354-.853l.177-.177a.5.5,0,0,1,.709.706l-.177.177A.5.5,0,0,1,67.164,92.664Zm1.588-1.594a.5.5,0,0,1-.354-.853l.177-.177a.5.5,0,0,1,.709.706l-.177.177A.5.5,0,0,1,68.752,91.07Zm1.588-1.594a.5.5,0,0,1-.354-.853l.177-.177a.5.5,0,0,1,.709.706l-.177.177A.5.5,0,0,1,70.34,89.475Zm1.588-1.594a.5.5,0,0,1-.354-.853l.177-.177a.5.5,0,0,1,.709.706l-.177.177A.5.5,0,0,1,71.928,87.881Zm1.588-1.594a.5.5,0,0,1-.354-.853l.177-.177a.5.5,0,0,1,.709.706l-.177.177A.5.5,0,0,1,73.515,86.287ZM75.1,84.693a.5.5,0,0,1-.355-.852l.176-.177a.5.5,0,0,1,.711.7l-.176.177A.5.5,0,0,1,75.1,84.693ZM76.691,83.1a.5.5,0,0,1-.354-.853l.176-.177a.5.5,0,0,1,.709.705l-.176.177A.5.5,0,0,1,76.691,83.1ZM78.278,81.5a.5.5,0,0,1-.354-.854l.177-.177a.5.5,0,0,1,.707.707l-.177.177A.5.5,0,0,1,78.278,81.5Zm1.588-1.594a.5.5,0,0,1-.354-.854l.177-.177a.5.5,0,0,1,.707.707l-.177.177A.5.5,0,0,1,79.866,79.91Zm1.588-1.594a.5.5,0,0,1-.354-.854l.177-.177a.5.5,0,0,1,.707.707l-.177.177A.5.5,0,0,1,81.454,78.316Zm1.588-1.594a.5.5,0,0,1-.354-.854l.177-.177a.5.5,0,0,1,.707.707l-.177.177A.5.5,0,0,1,83.042,76.721Zm1.588-1.594a.5.5,0,0,1-.354-.854l.177-.177a.5.5,0,0,1,.707.707l-.177.177A.5.5,0,0,1,84.63,75.127Zm1.588-1.594a.5.5,0,0,1-.354-.853l.176-.177a.5.5,0,1,1,.709.705l-.176.177A.5.5,0,0,1,86.218,73.533Zm1.588-1.594a.5.5,0,0,1-.354-.853l.176-.177a.5.5,0,0,1,.709.705l-.176.177A.5.5,0,0,1,87.806,71.939Zm1.587-1.594a.5.5,0,0,1-.354-.854l.177-.177a.5.5,0,0,1,.707.707l-.177.177A.5.5,0,0,1,89.392,70.344ZM90.98,68.75a.5.5,0,0,1-.354-.854l.177-.177a.5.5,0,0,1,.707.707l-.177.177A.5.5,0,0,1,90.98,68.75Zm1.588-1.594a.5.5,0,0,1-.354-.853l.177-.177a.5.5,0,0,1,.709.706l-.177.177A.5.5,0,0,1,92.568,67.156Zm1.588-1.594a.5.5,0,0,1-.354-.853l.177-.177a.5.5,0,0,1,.709.706l-.177.177A.5.5,0,0,1,94.156,65.562Zm1.588-1.594a.5.5,0,0,1-.355-.852l.176-.177a.5.5,0,0,1,.711.7l-.176.177A.5.5,0,0,1,95.744,63.968Zm1.588-1.594a.5.5,0,0,1-.355-.852l.176-.177a.5.5,0,0,1,.711.7l-.176.177A.5.5,0,0,1,97.332,62.374Zm1.588-1.594a.5.5,0,0,1-.355-.852l.176-.177a.5.5,0,0,1,.711.7l-.176.177A.5.5,0,0,1,98.92,60.779Zm1.587-1.594a.5.5,0,0,1-.354-.853l.177-.177a.5.5,0,0,1,.709.706l-.177.177A.5.5,0,0,1,100.507,59.185Zm1.588-1.594a.5.5,0,0,1-.354-.853l.177-.177a.5.5,0,0,1,.709.706l-.177.177A.5.5,0,0,1,102.095,57.591ZM103.682,56a.5.5,0,0,1-.354-.853l.177-.177a.5.5,0,0,1,.709.706l-.177.177A.5.5,0,0,1,103.682,56ZM105.27,54.4a.5.5,0,0,1-.354-.853l.177-.177a.5.5,0,0,1,.709.706l-.177.177A.5.5,0,0,1,105.27,54.4Zm1.588-1.594a.5.5,0,0,1-.355-.852l.176-.177a.5.5,0,0,1,.711.7l-.176.177A.5.5,0,0,1,106.858,52.808Zm1.588-1.594a.5.5,0,0,1-.355-.852l.176-.177a.5.5,0,0,1,.711.7l-.176.177A.5.5,0,0,1,108.446,51.214Zm1.587-1.594a.5.5,0,0,1-.354-.853l.177-.177a.5.5,0,0,1,.709.706l-.177.177A.5.5,0,0,1,110.033,49.62Zm1.588-1.594a.5.5,0,0,1-.354-.853l.177-.177a.5.5,0,0,1,.709.706l-.177.177A.5.5,0,0,1,111.621,48.026Z" fill="#c3c3c3"/><path d="M45.024,106.69a.5.5,0,0,1-.354-.854l65.312-65.4a.5.5,0,1,1,.707.707l-65.312,65.4A.5.5,0,0,1,45.024,106.69Z" fill="#c3c3c3"/><path d="M113.534,142.417a.5.5,0,0,1-.351-.856l.172-.172a.5.5,0,1,1,.711.7l-.182.181a.5.5,0,0,1-.35.143m1.59-1.591a.5.5,0,0,1-.351-.856l.172-.172a.5.5,0,1,1,.711.7l-.182.181a.5.5,0,0,1-.35.143m1.59-1.592a.5.5,0,0,1-.35-.856l.172-.172a.5.5,0,0,1,.711.7l-.182.181a.5.5,0,0,1-.351.143m1.59-1.591a.5.5,0,0,1-.35-.857l.172-.172a.5.5,0,1,1,.711.7l-.181.181a.5.5,0,0,1-.351.144m1.59-1.592a.5.5,0,0,1-.35-.856l.172-.172a.5.5,0,1,1,.711.7l-.181.181a.5.5,0,0,1-.351.143m1.591-1.591a.5.5,0,0,1-.351-.856l.172-.172a.5.5,0,1,1,.711.7l-.182.181a.5.5,0,0,1-.35.143m1.59-1.592a.5.5,0,0,1-.351-.856l.172-.172a.5.5,0,1,1,.711.7l-.182.181a.5.5,0,0,1-.35.143m1.591-1.592a.5.5,0,0,1-.351-.856l.172-.172a.5.5,0,1,1,.711.7l-.182.181a.5.5,0,0,1-.35.143m1.589-1.591a.5.5,0,0,1-.35-.857l.172-.172a.5.5,0,1,1,.711.7l-.182.181a.5.5,0,0,1-.351.144m1.591-1.592a.5.5,0,0,1-.35-.856l.172-.172a.5.5,0,1,1,.711.7l-.181.181a.5.5,0,0,1-.351.143m1.59-1.592a.5.5,0,0,1-.35-.856l.172-.172a.5.5,0,1,1,.711.7l-.181.181a.5.5,0,0,1-.351.143m1.591-1.592a.5.5,0,0,1-.351-.856l.172-.172a.5.5,0,1,1,.711.7l-.182.181a.5.5,0,0,1-.35.143m1.59-1.591a.5.5,0,0,1-.351-.856l.172-.172a.5.5,0,1,1,.711.7l-.182.181a.5.5,0,0,1-.35.143m1.591-1.592a.5.5,0,0,1-.351-.856l.172-.172a.5.5,0,0,1,.711.7l-.182.181a.5.5,0,0,1-.35.143m1.589-1.591a.5.5,0,0,1-.35-.857l.172-.172a.5.5,0,1,1,.711.7l-.182.181a.5.5,0,0,1-.351.144m1.591-1.592a.5.5,0,0,1-.35-.856l.172-.172a.5.5,0,1,1,.71.7l-.181.181a.5.5,0,0,1-.351.143m1.59-1.591a.5.5,0,0,1-.35-.856l.172-.172a.5.5,0,1,1,.711.7l-.181.181a.5.5,0,0,1-.351.143m1.59-1.592a.5.5,0,0,1-.351-.856l.172-.172a.5.5,0,1,1,.711.7l-.182.181a.5.5,0,0,1-.35.143m1.591-1.592a.5.5,0,0,1-.351-.856l.172-.172a.5.5,0,1,1,.711.7l-.182.181a.5.5,0,0,1-.35.143m1.59-1.591a.5.5,0,0,1-.351-.857l.172-.172a.5.5,0,0,1,.711.7l-.182.181a.5.5,0,0,1-.35.144m1.59-1.591a.5.5,0,0,1-.35-.856l.172-.172a.5.5,0,1,1,.711.7l-.182.181a.5.5,0,0,1-.351.143m1.59-1.592a.5.5,0,0,1-.35-.856l.172-.172a.5.5,0,1,1,.711.7l-.182.181a.5.5,0,0,1-.351.143m1.591-1.592a.5.5,0,0,1-.35-.856l.172-.172a.5.5,0,0,1,.711.7l-.181.181a.5.5,0,0,1-.351.143m1.59-1.592a.5.5,0,0,1-.351-.856l.172-.172a.5.5,0,1,1,.711.7l-.182.181a.5.5,0,0,1-.35.143m1.591-1.591a.5.5,0,0,1-.351-.856l.172-.172a.5.5,0,0,1,.711.7l-.182.181a.5.5,0,0,1-.35.143m1.59-1.591a.5.5,0,0,1-.351-.857l.172-.172a.5.5,0,0,1,.711.7l-.182.181a.5.5,0,0,1-.35.144m1.59-1.592a.5.5,0,0,1-.35-.856L154.7,100a.5.5,0,1,1,.711.7l-.182.181a.5.5,0,0,1-.351.143m1.59-1.591a.5.5,0,0,1-.35-.856l.172-.172a.5.5,0,1,1,.711.7l-.182.181a.5.5,0,0,1-.351.143m1.591-1.592a.5.5,0,0,1-.35-.856l.172-.172a.5.5,0,0,1,.711.7l-.181.181a.5.5,0,0,1-.351.143m1.59-1.592a.5.5,0,0,1-.351-.856l.172-.172a.5.5,0,1,1,.711.7l-.182.181a.5.5,0,0,1-.35.143m1.591-1.591a.5.5,0,0,1-.351-.857l.172-.172a.5.5,0,1,1,.711.7l-.182.181a.5.5,0,0,1-.35.144m1.59-1.591a.5.5,0,0,1-.351-.856l.172-.172a.5.5,0,0,1,.711.7l-.182.181a.5.5,0,0,1-.35.143m1.59-1.592a.5.5,0,0,1-.35-.856l.172-.172a.5.5,0,1,1,.711.7l-.182.181a.5.5,0,0,1-.351.143m1.59-1.592a.5.5,0,0,1-.35-.856l.172-.172a.5.5,0,1,1,.711.7l-.182.181a.5.5,0,0,1-.351.143" fill="#c3c3c3"/><path d="M159.083,71.2a12.7,12.7,0,0,1-3.924-1.034.5.5,0,0,1-.3-.377,3.582,3.582,0,0,1-.014-1.551A1.776,1.776,0,0,0,154,66.551a1.972,1.972,0,0,0-1.939-.453,2.742,2.742,0,0,1-1.641.365.5.5,0,0,1-.32-.17,13.541,13.541,0,0,1-1.994-3.47.5.5,0,0,1,.006-.314,2.456,2.456,0,0,1,1.148-1.268,1.97,1.97,0,0,0,.77-1.962,1.73,1.73,0,0,0-1.229-1.521,2.642,2.642,0,0,1-1.5-1.024l-.042-.234a15.949,15.949,0,0,1,.969-3.8.5.5,0,0,1,.265-.256,2.806,2.806,0,0,1,1.755-.1c.452.121,1.094-.249,1.607-.915.524-.684.753-1.489.532-1.872a3.182,3.182,0,0,1-.345-1.322l-.02-.2a.5.5,0,0,1,.177-.444,14.21,14.21,0,0,1,3.5-1.973.506.506,0,0,1,.337.017,2.885,2.885,0,0,1,1.206,1.122,2.067,2.067,0,0,0,1.924.5c.819-.108,1.429-.473,1.551-.931a2.773,2.773,0,0,1,.9-1.415.5.5,0,0,1,.343-.093,13.289,13.289,0,0,1,3.879,1.052.5.5,0,0,1,.248.3,3.144,3.144,0,0,1,.048,1.609c-.119.446.264,1.115.933,1.628a1.938,1.938,0,0,0,1.835.5,2.77,2.77,0,0,1,1.531-.372.5.5,0,0,1,.363.182,11.963,11.963,0,0,1,2.014,3.586.5.5,0,0,1-.042.369,2.8,2.8,0,0,1-1.062,1.092c-.351.2-.539,1.021-.428,1.864s.472,1.488.882,1.6h0a2.621,2.621,0,0,1,1.384.862.5.5,0,0,1,.122.367,13.773,13.773,0,0,1-1.058,3.867.5.5,0,0,1-.344.3,3.164,3.164,0,0,1-1.555.02,2.249,2.249,0,0,0-2.126,2.77,2.715,2.715,0,0,1,.441,1.527.5.5,0,0,1-.139.321,11.129,11.129,0,0,1-3.727,2.106.5.5,0,0,1-.386-.047,2.987,2.987,0,0,1-1.045-1.1,1.857,1.857,0,0,0-1.8-.5c-.857.113-1.544.517-1.669.984a2.817,2.817,0,0,1-.78,1.377.5.5,0,0,1-.326.133h-.074M155.8,69.351a12,12,0,0,0,3.128.844,2.056,2.056,0,0,0,.364-.764,2.806,2.806,0,0,1,2.506-1.717,2.75,2.75,0,0,1,2.8.992,2.261,2.261,0,0,0,.508.619,11,11,0,0,0,2.919-1.633,2.048,2.048,0,0,0-.3-.79,3.184,3.184,0,0,1,3.25-4.236,2.019,2.019,0,0,0,.809.025,13.29,13.29,0,0,0,.871-3.106,1.574,1.574,0,0,0-.747-.4,2.739,2.739,0,0,1-1.615-2.434c-.132-1,.03-2.348.918-2.859a1.818,1.818,0,0,0,.578-.532,11.727,11.727,0,0,0-1.613-2.83,1.8,1.8,0,0,0-.769.237,3.329,3.329,0,0,1-4.235-3.25,2.1,2.1,0,0,0,.012-.854,13.059,13.059,0,0,0-3.1-.826,2.013,2.013,0,0,0-.4.745,2.642,2.642,0,0,1-2.388,1.665,2.954,2.954,0,0,1-2.92-.991,2.049,2.049,0,0,0-.579-.615,15,15,0,0,0-2.753,1.558,2.147,2.147,0,0,0,.208.859c.533.924.008,2.183-.6,2.981a2.7,2.7,0,0,1-2.659,1.273,1.833,1.833,0,0,0-.931,0,16.6,16.6,0,0,0-.785,3.079,2.51,2.51,0,0,0,.782.409,2.686,2.686,0,0,1,1.962,2.357,2.941,2.941,0,0,1-1.262,2.959,1.72,1.72,0,0,0-.639.589,13.768,13.768,0,0,0,1.6,2.781,1.827,1.827,0,0,0,.839-.246,2.915,2.915,0,0,1,3.047.526,2.693,2.693,0,0,1,1.206,2.738,2.142,2.142,0,0,0-.01.855m4.873-5.481a6.081,6.081,0,0,1-2.643-.614,5.926,5.926,0,1,1,2.643.614m-.024-10.919a4.957,4.957,0,1,0,2.21.514,5.083,5.083,0,0,0-2.21-.514" fill="#c3c3c3"/><path d="M178.2,100.055a2.146,2.146,0,0,1-.931-.217,2.085,2.085,0,0,1,.921-3.951,2.141,2.141,0,0,1,.932.217,2.084,2.084,0,0,1-.921,3.95m-.008-5.164a3.076,3.076,0,0,0-1.539.411,3.107,3.107,0,0,0-1.536,2.467,3.075,3.075,0,0,0,1.718,2.97,3.147,3.147,0,0,0,1.362.312,3.079,3.079,0,0,0,3.074-2.876h0a3.071,3.071,0,0,0-1.717-2.971,3.13,3.13,0,0,0-1.363-.313m-.915-1.217a2.4,2.4,0,0,0,.3-.019,1.486,1.486,0,0,0,1.353-.982l.056-.136a6.323,6.323,0,0,1,1.1.292l-.014.151a1.532,1.532,0,0,0,.7,1.545,1.955,1.955,0,0,0,1.133.434,1.1,1.1,0,0,0,.555-.144l.117-.053a5.587,5.587,0,0,1,.576,1l-.1.077a1.593,1.593,0,0,0-.564,1.616,1.5,1.5,0,0,0,.958,1.372l.139.052a6.247,6.247,0,0,1-.316,1.1l-.129-.016a1.156,1.156,0,0,0-.3-.038,1.691,1.691,0,0,0-1.294.718,1.549,1.549,0,0,0-.244,1.711l.074.143a5.538,5.538,0,0,1-1.016.566l-.08-.118a1.419,1.419,0,0,0-1.279-.62,2.34,2.34,0,0,0-.306.021,1.59,1.59,0,0,0-1.407,1.006l-.054.15a6.037,6.037,0,0,1-1.1-.308l.013-.149a1.529,1.529,0,0,0-.664-1.572,1.9,1.9,0,0,0-1.133-.421,1.2,1.2,0,0,0-.6.153l-.147.061a6.846,6.846,0,0,1-.572-.992l.131-.093a1.658,1.658,0,0,0,.726-1.663,1.545,1.545,0,0,0-1.121-1.335l-.154-.062a8.7,8.7,0,0,1,.281-1.1l.179.02a1.057,1.057,0,0,0,.272.035,1.665,1.665,0,0,0,1.261-.73,1.63,1.63,0,0,0,.307-1.7l-.047-.152a7.576,7.576,0,0,1,.977-.556l.091.117a1.5,1.5,0,0,0,1.341.618m1.366-2.184-.154.112a1.567,1.567,0,0,0-.522.814c-.019.068-.171.188-.453.238a1.366,1.366,0,0,1-.243.022.723.723,0,0,1-.468-.12,1.614,1.614,0,0,0-.7-.642l-.165-.069-.171.053a6.945,6.945,0,0,0-1.749.984l-.2.264.031.269a1.759,1.759,0,0,0,.2.73.945.945,0,0,1-.288.667.694.694,0,0,1-.41.271h-.017a1.614,1.614,0,0,0-.417-.055,1.53,1.53,0,0,0-.583.113l-.183.076-.082.18a7.817,7.817,0,0,0-.482,1.892l-.008.124.051.113a1.489,1.489,0,0,0,.88.63.557.557,0,0,1,.39.5.691.691,0,0,1-.235.667,1.421,1.421,0,0,0-.66.74l-.055.156.049.158a6.662,6.662,0,0,0,1,1.737l.127.147.193.023a1.355,1.355,0,0,0,.155.009,1.589,1.589,0,0,0,.785-.215.2.2,0,0,1,.1-.02.949.949,0,0,1,.528.216c.218.168.345.381.307.521a1.957,1.957,0,0,0,0,.845l.045.271.253.108a6.176,6.176,0,0,0,1.962.51h.041l.188,0,.139-.129a1.615,1.615,0,0,0,.444-.776.752.752,0,0,1,.57-.273,1.316,1.316,0,0,1,.176-.012.554.554,0,0,1,.413.118,1.664,1.664,0,0,0,.593.621l.184.1.2-.058a5.5,5.5,0,0,0,1.881-1.069l.129-.134.01-.186a1.517,1.517,0,0,0-.243-.869c-.071-.123,0-.382.171-.6a.742.742,0,0,1,.493-.328.177.177,0,0,1,.047.006,1.567,1.567,0,0,0,.4.05,1.975,1.975,0,0,0,.468-.058l.248-.062.095-.237a6.7,6.7,0,0,0,.52-1.909l.016-.21-.139-.158a1.486,1.486,0,0,0-.784-.488.677.677,0,0,1-.207-.427,1.078,1.078,0,0,1,.054-.73,1.6,1.6,0,0,0,.6-.618l.1-.177-.053-.194a5.977,5.977,0,0,0-1.005-1.8l-.141-.17-.221-.011h-.061a1.617,1.617,0,0,0-.808.213.111.111,0,0,1-.053.009.967.967,0,0,1-.525-.227c-.264-.2-.365-.425-.346-.493a1.741,1.741,0,0,0-.027-.909l-.062-.2-.185-.1a6.49,6.49,0,0,0-1.932-.527l-.19-.019" fill="#e1e1e1"/><path d="M55.552,47.038a.5.5,0,0,0,.328-.123l10.763-9.347a1.04,1.04,0,0,1,.684-.241c.031,0,.063,0,.094,0a1.544,1.544,0,0,1,1.342,1.664,1.028,1.028,0,0,1-.4.71L56.956,48.243a.5.5,0,0,0-.175.557,3.5,3.5,0,0,1,.145.65A3.351,3.351,0,0,1,51.833,52.7l.816-.1a.5.5,0,0,0,.4-.3l.958-2.248a.5.5,0,0,0-.061-.5l-1.468-1.953a.492.492,0,0,0-.394-.2.5.5,0,0,0-.066,0l-.816.1a3.344,3.344,0,0,1,1.992-.984,3.464,3.464,0,0,1,.4-.023,3.338,3.338,0,0,1,1.706.466.5.5,0,0,0,.254.07m11.76-10.713a2.006,2.006,0,0,0-1.324.488l-10.5,9.121A4.286,4.286,0,0,0,53.6,45.5a4.459,4.459,0,0,0-.53.032A4.346,4.346,0,0,0,49.7,47.917a.5.5,0,0,0,.039.511.486.486,0,0,0,.408.212.571.571,0,0,0,.06,0l1.643-.2,1.121,1.491-.732,1.717-1.642.2a.5.5,0,0,0-.321.82A4.342,4.342,0,0,0,53.6,54.206a4.445,4.445,0,0,0,.527-.032,4.346,4.346,0,0,0,3.707-5.336l11.137-8.333a2.025,2.025,0,0,0,.789-1.386,2.542,2.542,0,0,0-2.245-2.786q-.1-.009-.2-.009" fill="#dbdbdb"/><path d="M65.228,40.1a.491.491,0,0,0-.314.112L57.42,46.288a.5.5,0,0,0,.314.888.494.494,0,0,0,.314-.112l7.494-6.076a.5.5,0,0,0-.315-.889" fill="#dbdbdb"/><path d="M166.5,129.026H16.493a.5.5,0,1,1,0-1H166.5a.5.5,0,1,1,0,1Z" fill="#c3c3c3"/><path d="M36.5,148.99a.5.5,0,0,1-.5-.5V49.508a.5.5,0,0,1,1,0V148.49A.5.5,0,0,1,36.5,148.99Z" fill="#c3c3c3"/><polyline points="154.243 120.812 44.362 120.812 44.362 60.772 154.243 60.772 154.243 120.812" fill="#fff"/><path d="M135.016,61.005H154V80.024H135.016V61.005M135,81.011h19.021V100H135V81.011m19,20.007L154.007,120,134.987,120q0-9.489,0-18.979H154M53,61.005h61v7H53v-7m61.014,18.213v40.814H53V69.015h61.014v10.2M45,69.015h7V120H45V69.015m0-8.01h7v7H45v-7m-1,60.009h111v-61h-111v61" fill="#343942"/><rect x="44.619" y="112.01" width="4.385" height="0.996" fill="#343942"/><polyline points="136.996 63.013 151.998 63.013 151.998 78.015 136.996 78.015 136.996 63.013" fill="#343942"/><polyline points="137 83.016 151.998 83.016 151.998 98.016 137 98.016 137 83.016" fill="#c7c6c1"/><rect x="114.981" y="61.006" width="19.033" height="19.018" fill="#ffffff"/><polygon points="115.007 81.011 134.014 81.011 134.014 89.054 134.014 100.004 115.007 100.004 115.007 81.011" fill="#c7c6c1"/><polyline points="115.002 101.016 134.014 101.016 134.014 109.062 134.014 120.015 115.002 120.015 115.002 101.016" fill="#e7e7e4"/><path d="M83.727,119.995a.5.5,0,0,1,0-1l.247,0h.005a.5.5,0,0,1,.006,1l-.252,0h0m-2-.044H81.7l-.255-.014a.5.5,0,0,1-.47-.528.489.489,0,0,1,.528-.47l.244.013a.5.5,0,0,1-.024,1m4.247-.036a.5.5,0,0,1-.032-1l.243-.017a.515.515,0,0,1,.537.46.5.5,0,0,1-.461.537l-.255.018h-.032m-6.488-.145-.057,0-.252-.029a.5.5,0,0,1-.437-.555.492.492,0,0,1,.555-.438l.246.029a.5.5,0,0,1-.055,1m8.726-.075a.5.5,0,0,1-.063-1l.244-.033a.5.5,0,0,1,.135.992l-.25.033-.065,0m-10.951-.248-.089-.008-.252-.046a.5.5,0,1,1,.188-.983l.24.044a.5.5,0,0,1-.087.992m13.236-.127a.525.525,0,0,1-.521-.4.472.472,0,0,1,.359-.581l.243-.049a.5.5,0,0,1,.2.981l-.178.035-.1.01m-15.437-.337-.12-.015-.246-.061a.5.5,0,0,1-.361-.607.494.494,0,0,1,.607-.363l.24.06a.5.5,0,0,1-.12.985m17.566-.154a.5.5,0,0,1-.125-.984l.234-.063a.5.5,0,1,1,.264.964l-.248.066-.125.016m-19.734-.452-.15-.023-.241-.078a.5.5,0,1,1,.307-.951l.235.075a.5.5,0,0,1-.15.977m21.886-.2a.5.5,0,0,1-.158-.974l.232-.079a.5.5,0,1,1,.326.945l-.242.082-.158.026m-24.007-.555-.181-.033-.239-.1a.5.5,0,1,1,.375-.927l.226.089a.5.5,0,0,1-.181.966m26.113-.235a.5.5,0,0,1-.191-.962l.224-.094a.5.5,0,0,1,.395.919l-.237.1-.19.037m-28.178-.657-.214-.049-.232-.112a.5.5,0,0,1,.443-.9l.217.105a.5.5,0,0,1-.214.952m30.225-.277a.5.5,0,0,1-.222-.948l.22-.11a.5.5,0,1,1,.451.891l-.227.115-.222.052M66.71,115.7l-.247-.065-.219-.126a.5.5,0,0,1,.5-.867l.215.123a.5.5,0,0,1-.247.935m34.2-.318a.5.5,0,0,1-.253-.931l.21-.126a.5.5,0,1,1,.516.856l-.22.132-.253.069m-36.111-.859a.5.5,0,0,1-.279-.085l-.212-.142a.5.5,0,0,1,.567-.825l.2.137a.5.5,0,0,1-.278.916m38-.36a.5.5,0,0,1-.287-.909l.2-.141a.5.5,0,1,1,.582.812l-.208.148a.5.5,0,0,1-.287.09M62.972,113.2a.5.5,0,0,1-.309-.107l-.2-.156a.5.5,0,1,1,.621-.784l.195.153a.5.5,0,0,1-.308.894m41.616-.4a.5.5,0,0,1-.318-.886l.19-.157a.5.5,0,0,1,.643.766l-.2.162a.5.5,0,0,1-.318.114m-43.33-1.057a.5.5,0,0,1-.339-.132l-.186-.172a.5.5,0,0,1,.684-.731l.179.168a.5.5,0,0,1-.339.868m45.009-.441a.5.5,0,0,1-.35-.858l.178-.173a.5.5,0,1,1,.7.713l-.18.176a.5.5,0,0,1-.349.142m-46.6-1.151a.5.5,0,0,1-.369-.161l-.17-.188a.5.5,0,0,1,.742-.671l.165.181a.5.5,0,0,1-.368.839m48.144-.481a.5.5,0,0,1-.378-.827l.159-.185a.5.5,0,1,1,.764.646l-.167.194a.5.5,0,0,1-.378.172m-49.592-1.239a.5.5,0,0,1-.4-.2l-.155-.2a.5.5,0,0,1,.8-.6l.147.193a.5.5,0,0,1-.4.805m50.992-.52a.494.494,0,0,1-.293-.1.5.5,0,0,1-.112-.7l.142-.2a.5.5,0,1,1,.816.576l-.148.208a.5.5,0,0,1-.405.207m-52.278-1.325a.5.5,0,0,1-.422-.232l-.137-.219a.5.5,0,1,1,.852-.524l.129.207a.5.5,0,0,1-.154.69.5.5,0,0,1-.268.078m53.511-.556-.251-.068a.5.5,0,0,1-.182-.683l.126-.216a.5.5,0,0,1,.865.5l-.126.217a.5.5,0,0,1-.432.249m-54.619-1.4a.5.5,0,0,1-.448-.277l-.111-.224a.5.5,0,0,1,.9-.446l.112.224a.5.5,0,0,1-.225.671l-.223.052m55.665-.585L111.28,104a.5.5,0,0,1-.241-.665l.1-.221a.5.5,0,0,1,.912.411l-.107.233a.5.5,0,0,1-.453.288m-56.573-1.472a.5.5,0,0,1-.468-.323l-.088-.235a.5.5,0,1,1,.936-.351l.088.233a.5.5,0,0,1-.291.645l-.177.032m57.415-.612-.164-.028a.5.5,0,0,1-.309-.636l.078-.23a.5.5,0,0,1,.949.316l-.082.242a.5.5,0,0,1-.473.336m-58.108-1.526a.5.5,0,0,1-.483-.37l-.063-.241a.5.5,0,0,1,.966-.258l.064.24a.5.5,0,0,1-.354.613l-.13.017m58.731-.635-.112-.012a.5.5,0,0,1-.376-.6l.053-.238a.5.5,0,0,1,.978.211l-.056.25a.5.5,0,0,1-.487.389m-59.2-1.561a.5.5,0,0,1-.493-.423l-.038-.248a.5.5,0,1,1,.989-.152l.038.247a.5.5,0,0,1-.418.57l-.077.006m59.589-.652-.059,0a.5.5,0,0,1-.438-.555l.027-.242a.5.5,0,1,1,.994.105l-.029.254a.5.5,0,0,1-.5.442M53.532,96a.5.5,0,0,1-.5-.477l-.012-.255a.5.5,0,0,1,.482-.517.492.492,0,0,1,.517.482l.01.243a.5.5,0,0,1-.476.523h-.023m59.967-.659h-.012a.5.5,0,0,1-.488-.512l0-.238a.5.5,0,0,1,1,0l0,.261a.5.5,0,0,1-.5.488M53.543,93.756h-.029a.5.5,0,0,1-.47-.528l.017-.261a.521.521,0,0,1,.539-.457.5.5,0,0,1,.457.539l-.016.238a.5.5,0,0,1-.5.471m59.877-.609a.5.5,0,0,1-.5-.453l-.023-.243a.5.5,0,1,1,.994-.106l.026.255a.5.5,0,0,1-.451.544l-.048,0M53.791,91.522l-.083-.007a.5.5,0,0,1-.411-.574l.043-.254a.5.5,0,1,1,.984.176l-.041.241a.5.5,0,0,1-.492.418m59.312-.6a.5.5,0,0,1-.489-.4l-.05-.239a.5.5,0,0,1,.979-.211l.052.252a.5.5,0,0,1-.391.589l-.1.01m-58.826-1.6-.135-.019a.5.5,0,0,1-.347-.616l.067-.242a.5.5,0,0,1,.963.271l-.067.24a.5.5,0,0,1-.481.366m58.273-.581a.5.5,0,0,1-.477-.348L112,88.159a.5.5,0,0,1,.952-.306l.076.239a.5.5,0,0,1-.324.628l-.152.024M54.987,87.193l-.182-.034a.5.5,0,0,1-.284-.648l.092-.233a.5.5,0,0,1,.932.365l-.092.231a.5.5,0,0,1-.466.318m56.785-.558a.5.5,0,0,1-.459-.3l-.1-.228a.5.5,0,1,1,.916-.4l.1.23a.5.5,0,0,1-.26.658l-.2.041m-55.859-1.49-.229-.056a.5.5,0,0,1-.215-.674l.115-.222a.5.5,0,1,1,.886.461l-.113.22a.5.5,0,0,1-.445.27m54.874-.532a.5.5,0,0,1-.439-.26l-.119-.213a.5.5,0,0,1,.871-.491l.125.225a.5.5,0,0,1-.2.679l-.24.061M57.035,83.2a.5.5,0,0,1-.421-.769l.139-.216a.5.5,0,0,1,.836.549l-.133.2a.5.5,0,0,1-.421.231m52.574-.505a.5.5,0,0,1-.413-.219l-.14-.2a.5.5,0,1,1,.821-.57l.145.21a.5.5,0,0,1-.132.694.491.491,0,0,1-.281.087M58.337,81.366a.5.5,0,0,1-.395-.807l.156-.2a.5.5,0,0,1,.785.62l-.152.193a.5.5,0,0,1-.395.193M108.26,80.9a.5.5,0,0,1-.386-.182l-.157-.188a.5.5,0,0,1,.766-.643l.163.2a.5.5,0,0,1-.386.818M59.8,79.657a.5.5,0,0,1-.366-.84l.175-.187a.5.5,0,1,1,.724.689l-.167.178a.5.5,0,0,1-.366.16m46.961-.434a.5.5,0,0,1-.357-.149l-.175-.176a.5.5,0,0,1,.711-.7l.177.179a.5.5,0,0,1-.356.85M61.4,78.079a.5.5,0,0,1-.337-.869l.19-.172a.5.5,0,0,1,.666.747l-.181.163a.5.5,0,0,1-.337.131m43.718-.4a.494.494,0,0,1-.327-.122l-.187-.16a.5.5,0,0,1,.649-.761l.192.165a.5.5,0,0,1-.327.878M63.124,76.635a.5.5,0,0,1-.3-.9l.2-.155a.5.5,0,1,1,.6.8l-.2.148a.5.5,0,0,1-.3.1m40.237-.357a.5.5,0,0,1-.3-.1l-.2-.145a.5.5,0,1,1,.586-.81l.206.151a.5.5,0,0,1-.3.9m-38.4-.947a.5.5,0,0,1-.275-.919l.215-.139a.5.5,0,0,1,.54.843l-.205.133a.5.5,0,0,1-.274.082m36.543-.318a.5.5,0,0,1-.267-.077l-.207-.13a.5.5,0,0,1,.526-.851l.217.135a.5.5,0,0,1-.268.923m-34.618-.845a.5.5,0,0,1-.242-.937l.224-.122a.5.5,0,1,1,.475.88l-.215.117-.242.062m32.671-.28-.237-.06-.214-.113a.5.5,0,0,1,.461-.888l.227.12a.5.5,0,0,1-.237.94m-30.665-.739a.5.5,0,0,1-.212-.953l.232-.106a.5.5,0,0,1,.414.91l-.223.1-.212.047m28.641-.242-.205-.044-.224-.1a.5.5,0,0,1,.4-.917l.233.1a.5.5,0,0,1-.2.956m-26.569-.635a.5.5,0,0,1-.178-.967l.236-.089a.5.5,0,0,1,.351.936l-.232.087-.177.032m24.482-.2-.17-.03-.231-.083a.5.5,0,0,1,.332-.944l.239.086a.5.5,0,0,1-.17.97m-22.355-.53a.5.5,0,0,1-.148-.978l.244-.074a.5.5,0,0,1,.283.959l-.232.07-.147.023M93.3,71.373l-.139-.02-.237-.068a.5.5,0,1,1,.27-.963l.245.07a.5.5,0,0,1-.139.981m-18.047-.425a.5.5,0,0,1-.114-.987l.246-.057a.5.5,0,1,1,.223.974l-.24.056-.115.013m15.866-.128-.108-.012-.239-.052a.5.5,0,1,1,.2-.979l.251.054a.5.5,0,0,1-.108.989M77.459,70.5a.5.5,0,0,1-.084-.992l.252-.042a.5.5,0,1,1,.158.988l-.24.04-.086.007m11.453-.091-.076-.006-.245-.036a.5.5,0,1,1,.144-.99l.251.038a.5.5,0,0,1-.074.994M79.687,70.2a.5.5,0,0,1-.052-1l.253-.025a.5.5,0,1,1,.1.995l-.243.025-.054,0m6.99-.055-.048,0-.243-.021a.5.5,0,0,1-.457-.539.522.522,0,0,1,.539-.458l.255.022a.5.5,0,0,1-.046,1m-4.745-.111a.5.5,0,0,1-.02-1l.255-.01a.517.517,0,0,1,.515.485.5.5,0,0,1-.485.514l-.244.009h-.021m2.5-.019h-.015l-.244-.006a.5.5,0,0,1-.491-.509.509.509,0,0,1,.509-.491l.256.006a.5.5,0,0,1-.015,1" fill="#c3c3c3"/><path d="M54.1,119.636a.5.5,0,0,1-.32-.884l.191-.159a.5.5,0,0,1,.643.766l-.193.161a.5.5,0,0,1-.32.116m1.726-1.443a.5.5,0,0,1-.32-.884l.19-.159a.5.5,0,0,1,.643.767l-.193.161a.5.5,0,0,1-.32.115m1.727-1.443a.5.5,0,0,1-.32-.884l.19-.159a.5.5,0,0,1,.643.766l-.192.161a.5.5,0,0,1-.32.116m1.725-1.443a.5.5,0,0,1-.32-.884l.19-.159a.5.5,0,0,1,.643.766l-.192.161a.5.5,0,0,1-.32.116M61,113.864a.5.5,0,0,1-.32-.884l.19-.159a.5.5,0,0,1,.643.767l-.192.161a.5.5,0,0,1-.32.115m1.726-1.443a.5.5,0,0,1-.32-.884l.191-.159a.5.5,0,0,1,.642.766l-.192.161a.5.5,0,0,1-.32.115m1.727-1.443a.5.5,0,0,1-.32-.884l.191-.159a.5.5,0,0,1,.643.766l-.193.161a.5.5,0,0,1-.32.116m1.726-1.443a.5.5,0,0,1-.32-.884l.191-.159a.5.5,0,0,1,.643.767l-.193.161a.5.5,0,0,1-.32.116m1.727-1.444a.5.5,0,0,1-.32-.884l.191-.159a.5.5,0,0,1,.643.766l-.193.161a.5.5,0,0,1-.32.115m1.726-1.443a.5.5,0,0,1-.32-.884l.191-.159a.5.5,0,0,1,.643.766l-.193.161a.5.5,0,0,1-.32.116m1.725-1.443a.5.5,0,0,1-.32-.884l.19-.159a.5.5,0,0,1,.643.766l-.193.161a.5.5,0,0,1-.32.116m1.727-1.443a.5.5,0,0,1-.32-.884l.19-.159a.5.5,0,0,1,.643.767l-.192.161a.5.5,0,0,1-.32.115m1.727-1.444a.5.5,0,0,1-.32-.884l.19-.159a.5.5,0,0,1,.643.766l-.192.161a.5.5,0,0,1-.32.115m1.727-1.443a.5.5,0,0,1-.32-.884l.19-.159a.5.5,0,0,1,.643.766l-.192.161a.5.5,0,0,1-.32.116m1.726-1.443a.5.5,0,0,1-.32-.884l.191-.159a.5.5,0,0,1,.642.767l-.192.161a.5.5,0,0,1-.32.115m1.726-1.443a.5.5,0,0,1-.32-.884l.191-.159a.5.5,0,0,1,.643.766l-.193.161a.5.5,0,0,1-.32.115m1.727-1.443a.5.5,0,0,1-.32-.884l.191-.159a.5.5,0,0,1,.643.766l-.193.161a.5.5,0,0,1-.32.116m1.726-1.443a.5.5,0,0,1-.32-.884l.191-.159a.5.5,0,0,1,.643.766l-.193.161a.5.5,0,0,1-.32.116m1.727-1.443a.5.5,0,0,1-.32-.884l.191-.159a.5.5,0,0,1,.643.767l-.193.161a.5.5,0,0,1-.32.115M86.9,92.22a.5.5,0,0,1-.32-.884l.19-.159a.5.5,0,0,1,.643.766l-.193.161a.5.5,0,0,1-.32.116m1.726-1.443a.5.5,0,0,1-.32-.884l.19-.159a.5.5,0,0,1,.643.766l-.192.161a.5.5,0,0,1-.32.116m1.725-1.443a.5.5,0,0,1-.32-.884l.19-.159a.5.5,0,0,1,.643.767l-.192.161a.5.5,0,0,1-.32.115m1.727-1.443a.5.5,0,0,1-.32-.884l.19-.159a.5.5,0,0,1,.643.766l-.192.161a.5.5,0,0,1-.32.115M93.8,86.449a.5.5,0,0,1-.32-.884l.191-.159a.5.5,0,1,1,.642.766l-.192.161a.5.5,0,0,1-.32.116m1.727-1.443a.5.5,0,0,1-.32-.884l.191-.159a.5.5,0,0,1,.643.767l-.193.161a.5.5,0,0,1-.32.115m1.727-1.443a.5.5,0,0,1-.32-.884l.191-.159a.5.5,0,0,1,.643.766l-.193.161a.5.5,0,0,1-.32.115m1.725-1.443a.5.5,0,0,1-.32-.884l.191-.159a.5.5,0,0,1,.643.766L99.3,82a.5.5,0,0,1-.32.116m1.727-1.443a.5.5,0,0,1-.32-.884l.191-.159a.5.5,0,0,1,.643.766l-.193.161a.5.5,0,0,1-.32.116m1.726-1.444a.5.5,0,0,1-.32-.884l.19-.159a.5.5,0,0,1,.643.767l-.193.161a.5.5,0,0,1-.32.115m1.727-1.443a.5.5,0,0,1-.32-.884l.19-.159a.5.5,0,0,1,.643.766l-.193.161a.5.5,0,0,1-.32.116m1.726-1.443a.5.5,0,0,1-.32-.884l.19-.159a.5.5,0,0,1,.643.766l-.192.161a.5.5,0,0,1-.32.116m1.727-1.443a.5.5,0,0,1-.32-.884l.19-.159a.5.5,0,0,1,.643.767l-.192.161a.5.5,0,0,1-.32.115m1.725-1.444a.5.5,0,0,1-.32-.884l.191-.159a.5.5,0,1,1,.642.766l-.192.161a.5.5,0,0,1-.32.115m1.727-1.443a.5.5,0,0,1-.32-.884l.191-.159a.5.5,0,0,1,.642.766l-.192.161a.5.5,0,0,1-.32.116m1.727-1.443a.5.5,0,0,1-.32-.884l.191-.159a.5.5,0,0,1,.643.767l-.193.161a.5.5,0,0,1-.32.116" fill="#c3c3c3"/><path d="M112.884,119.578a.5.5,0,0,1-.32-.116l-.193-.161a.5.5,0,0,1,.643-.766l.191.159a.5.5,0,0,1-.32.884m-1.727-1.443a.5.5,0,0,1-.32-.116l-.193-.161a.5.5,0,0,1,.643-.766l.191.159a.5.5,0,0,1-.32.884m-1.727-1.442a.5.5,0,0,1-.32-.115l-.193-.161a.5.5,0,0,1,.643-.767l.191.159a.5.5,0,0,1-.32.884m-1.727-1.442a.5.5,0,0,1-.32-.116l-.193-.161a.5.5,0,0,1,.643-.766l.191.159a.5.5,0,0,1-.32.884m-1.727-1.442a.5.5,0,0,1-.32-.116l-.193-.161a.5.5,0,0,1,.643-.766l.19.159a.5.5,0,0,1-.32.884m-1.727-1.443a.5.5,0,0,1-.32-.115l-.193-.161a.5.5,0,0,1,.643-.767l.19.159a.5.5,0,0,1-.32.884m-1.726-1.443a.5.5,0,0,1-.32-.115l-.192-.161a.5.5,0,0,1,.643-.766l.19.159a.5.5,0,0,1-.32.884m-1.729-1.442a.5.5,0,0,1-.32-.116l-.192-.161a.5.5,0,0,1,.643-.766l.19.159a.5.5,0,0,1-.32.884m-1.727-1.443a.5.5,0,0,1-.32-.116l-.192-.161A.5.5,0,0,1,99.2,107l.191.159a.5.5,0,0,1-.32.884M97.34,106.6a.5.5,0,0,1-.32-.115l-.192-.161a.5.5,0,0,1,.642-.767l.191.159a.5.5,0,0,1-.32.884m-1.727-1.442a.5.5,0,0,1-.32-.116l-.193-.161a.5.5,0,0,1,.643-.766l.191.159a.5.5,0,0,1-.32.884m-1.726-1.443a.5.5,0,0,1-.32-.116l-.193-.161a.5.5,0,0,1,.643-.766l.191.159a.5.5,0,0,1-.32.884m-1.728-1.443a.5.5,0,0,1-.32-.115l-.193-.161a.5.5,0,0,1,.643-.767l.191.159a.5.5,0,0,1-.32.884m-1.727-1.442a.5.5,0,0,1-.32-.115l-.193-.161a.5.5,0,0,1,.643-.766l.191.159a.5.5,0,0,1-.32.884m-1.727-1.442a.5.5,0,0,1-.32-.116l-.193-.161a.5.5,0,0,1,.643-.766l.19.159a.5.5,0,0,1-.32.884m-1.727-1.443a.5.5,0,0,1-.32-.116l-.192-.161a.5.5,0,0,1,.643-.766l.19.159a.5.5,0,0,1-.32.884M85.252,96.5a.5.5,0,0,1-.32-.115l-.192-.161a.5.5,0,0,1,.643-.767l.19.159a.5.5,0,0,1-.32.884M83.524,95.06a.5.5,0,0,1-.32-.116l-.192-.161a.5.5,0,0,1,.643-.766l.19.159a.5.5,0,0,1-.32.884M81.8,93.618a.5.5,0,0,1-.32-.116l-.192-.161a.5.5,0,1,1,.642-.766l.191.159a.5.5,0,0,1-.32.884M80.07,92.176a.5.5,0,0,1-.32-.115l-.192-.161a.5.5,0,0,1,.642-.767l.191.159a.5.5,0,0,1-.32.884m-1.727-1.443a.5.5,0,0,1-.32-.115l-.193-.161a.5.5,0,0,1,.643-.766l.191.159a.5.5,0,0,1-.32.884m-1.727-1.442a.5.5,0,0,1-.32-.116l-.193-.161a.5.5,0,0,1,.643-.766l.191.159a.5.5,0,0,1-.32.884M74.89,87.849a.5.5,0,0,1-.32-.116l-.193-.161a.5.5,0,0,1,.643-.766l.191.159a.5.5,0,0,1-.32.884m-1.726-1.442a.5.5,0,0,1-.32-.115l-.193-.161a.5.5,0,0,1,.643-.767l.191.159a.5.5,0,0,1-.32.884m-1.728-1.442a.5.5,0,0,1-.32-.116l-.193-.161a.5.5,0,0,1,.643-.766l.19.159a.5.5,0,0,1-.32.884m-1.727-1.443a.5.5,0,0,1-.32-.116l-.192-.161a.5.5,0,0,1,.643-.766l.19.159a.5.5,0,0,1-.32.884M67.981,82.08a.5.5,0,0,1-.32-.115l-.192-.161a.5.5,0,0,1,.643-.767l.19.159a.5.5,0,0,1-.32.884m-1.727-1.443a.5.5,0,0,1-.32-.115l-.192-.161a.5.5,0,0,1,.643-.766l.19.159a.5.5,0,0,1-.32.884M64.528,79.2a.5.5,0,0,1-.32-.116l-.192-.161a.5.5,0,1,1,.642-.766l.191.159a.5.5,0,0,1-.32.884M62.8,77.754a.5.5,0,0,1-.32-.116l-.193-.161a.5.5,0,0,1,.643-.767l.191.159a.5.5,0,0,1-.32.884m-1.727-1.443a.5.5,0,0,1-.32-.115l-.193-.161a.5.5,0,0,1,.643-.766l.191.159a.5.5,0,0,1-.32.884m-1.727-1.442a.5.5,0,0,1-.32-.116l-.193-.161a.5.5,0,0,1,.643-.766l.191.159a.5.5,0,0,1-.32.884M57.62,73.427a.5.5,0,0,1-.32-.116l-.193-.161a.5.5,0,0,1,.643-.766l.191.159a.5.5,0,0,1-.32.884m-1.727-1.442a.5.5,0,0,1-.32-.115l-.193-.161a.5.5,0,0,1,.643-.767l.191.159a.5.5,0,0,1-.32.884m-1.727-1.443a.5.5,0,0,1-.32-.115l-.193-.161A.5.5,0,0,1,54.3,69.5l.19.159a.5.5,0,0,1-.32.884" fill="#c3c3c3"/><path d="M45,116.16V120h7v-3.773c-2.465-.032-4.811-.059-7-.071m38.73,3.834a.5.5,0,0,1,0-1l.247,0h.005a.5.5,0,0,1,.006,1l-.252,0h0m-2-.044H81.7l-.255-.014a.5.5,0,0,1-.47-.528.489.489,0,0,1,.487-.472l.041,0,.244.013a.5.5,0,0,1-.024,1m4.247-.036a.5.5,0,0,1-.032-1l.243-.017.042,0a.519.519,0,0,1,.5.463.5.5,0,0,1-.461.537l-.255.018h-.032m-6.488-.145-.057,0-.252-.029a.5.5,0,0,1-.437-.555.49.49,0,0,1,.493-.442.553.553,0,0,1,.062,0l.246.029a.5.5,0,0,1-.055,1m8.726-.075a.5.5,0,0,1-.063-1l.244-.033a.5.5,0,0,1,.563.428.5.5,0,0,1-.427.564l-.25.033-.065,0M54.1,119.636a.5.5,0,0,1-.32-.884l.191-.159a.5.5,0,0,1,.643.766l-.193.161a.5.5,0,0,1-.32.116m58.787-.058a.5.5,0,0,1-.32-.116l-.193-.161a.5.5,0,0,1,.643-.766l.191.159a.5.5,0,0,1-.32.884m-35.623-.132-.089-.008-.252-.046a.5.5,0,0,1,.094-.991.534.534,0,0,1,.094.008l.24.044a.5.5,0,0,1-.087.992m13.236-.127a.525.525,0,0,1-.521-.4.472.472,0,0,1,.359-.581l.243-.049a.518.518,0,0,1,.1-.01.5.5,0,0,1,.1.99l-.178.035-.1.01m-15.437-.337-.12-.015-.246-.061a.5.5,0,0,1-.361-.607.492.492,0,0,1,.48-.378.533.533,0,0,1,.127.016l.24.06a.5.5,0,0,1-.12.985m17.566-.154a.5.5,0,0,1-.125-.984l.234-.063a.5.5,0,0,1,.132-.018.5.5,0,0,1,.131.982l-.248.066-.125.016m-19.734-.452-.15-.023-.241-.078a.5.5,0,0,1,.153-.976.493.493,0,0,1,.153.025l.235.075a.5.5,0,0,1-.15.977m21.886-.2a.5.5,0,0,1-.158-.974l.232-.079a.5.5,0,0,1,.163-.027.5.5,0,0,1,.163.973l-.242.082-.158.026m-38.956.013a.5.5,0,0,1-.32-.884l.19-.159a.5.5,0,0,1,.643.767l-.193.161a.5.5,0,0,1-.32.115m55.333-.058a.5.5,0,0,1-.32-.116l-.193-.161a.5.5,0,0,1,.643-.766l.191.159a.5.5,0,0,1-.32.884m-40.385-.51-.181-.033-.239-.1a.5.5,0,1,1,.375-.927l.226.089a.5.5,0,0,1-.181.966m26.113-.235a.5.5,0,0,1-.191-.962l.224-.094a.5.5,0,0,1,.395.919l-.237.1-.19.037m12.545-.7a.5.5,0,0,1-.32-.115l-.193-.161a.5.5,0,0,1,.643-.767l.191.159a.5.5,0,0,1-.32.884m4.582-2.4c-1.9.282-3.873.529-5.9.745l-.024.031a.5.5,0,0,1-.7.064l-.02-.017c-2.5.255-5.081.465-7.715.635a.5.5,0,0,1-.267.535l-.227.115-.222.052a.5.5,0,0,1-.484-.627c-7.944.478-16.346.619-24.475.619-1.615,0-3.22-.006-4.807-.015l-.007.014a.5.5,0,0,1-.452.286l-.214-.049-.232-.112a.5.5,0,0,1-.178-.147c-3.4-.024-6.716-.066-9.9-.109a.5.5,0,0,1-.125.158l-.192.161a.5.5,0,0,1-.818-.334L53,116.245v3.788h61.014V114.3m26.348-13.279a21.9,21.9,0,0,1-5.372,6.267q0,6.356,0,12.712l19.021.005L154,101.017H140.359m13.663-20.006H146.1q-.138,1.016-.287,2.005H152v15H141.886q-.454,1.027-.963,1.987h13.1V81.011M154,61.005h-6q-.079,1.012-.157,2.008H152v15h-5.522q-.119,1.018-.246,2.01H154V61.005" fill="#dedede"/><path d="M154.473,60.592l-6.453.159-.02.255h6V80.024H146.23c-.043.332-.086.659-.13.987h7.922V100h-13.1q-.274.517-.564,1.013H154L154.007,120,134.987,120q0-6.356,0-12.712-.473.372-.973.719v12.013H115v-5.871c-.327.051-.659.1-.991.151v5.737H53v-3.788l-1-.013V120H45V116.16l-.635,0,.026,4.769,110.409-.6-.323-59.73" fill="#31353d"/><path d="M152,63.013h-4.155c-.421,5.375-.83,10.388-1.367,15H152v-15" fill="#31353d"/><path d="M152,83.016h-6.185a59.435,59.435,0,0,1-3.927,15H152v-15" fill="#afada9"/><path d="M134.014,108a21.124,21.124,0,0,1-2.1,1.281c-4.173,2.228-10.05,3.783-16.911,4.861v5.871h19.011V108" fill="#cac9c7"/><path d="M83.976,118.993h-.005l-.247,0a.5.5,0,0,0,0,1h0l.252,0a.5.5,0,0,0-.006-1m-2.51-.056a.489.489,0,0,0-.487.472.5.5,0,0,0,.47.528l.255.014h.024a.5.5,0,0,0,.024-1l-.244-.013-.041,0m4.762-.041-.042,0-.243.017a.5.5,0,0,0,.032,1h.032l.255-.018a.5.5,0,0,0,.461-.537.519.519,0,0,0-.5-.463m-6.994-.156a.49.49,0,0,0-.493.442.5.5,0,0,0,.437.555l.252.029.057,0a.5.5,0,0,0,.055-1l-.246-.029a.553.553,0,0,0-.062,0m9.225-.079a.505.505,0,0,0-.066,0l-.244.033a.5.5,0,0,0,.063,1l.065,0,.25-.033a.5.5,0,0,0-.069-1M77.014,118.4a.5.5,0,0,0-.094.991l.252.046.089.008a.5.5,0,0,0,.087-.992l-.24-.044a.534.534,0,0,0-.094-.008m13.664-.118a.518.518,0,0,0-.1.01l-.243.049a.472.472,0,0,0-.359.581.525.525,0,0,0,.521.4l.1-.01.178-.035a.5.5,0,0,0-.1-.99m-15.865-.362a.492.492,0,0,0-.48.378.5.5,0,0,0,.361.607l.246.061.12.015a.5.5,0,0,0,.12-.985l-.24-.06a.533.533,0,0,0-.127-.016m18.055-.158a.5.5,0,0,0-.132.018l-.234.063a.5.5,0,0,0,.125.984l.125-.016.248-.066a.5.5,0,0,0-.131-.982M72.654,117.3a.5.5,0,0,0-.153.976l.241.078.15.023a.5.5,0,0,0,.15-.977l-.235-.075a.493.493,0,0,0-.153-.025m22.361-.2a.5.5,0,0,0-.163.027l-.232.079a.5.5,0,0,0,.158.974l.158-.026.242-.082a.5.5,0,0,0-.163-.973m-24.477-.566a.5.5,0,0,0-.187.963l.239.1.181.033a.5.5,0,0,0,.181-.966l-.226-.089a.5.5,0,0,0-.188-.037m-2.455-.108a.5.5,0,0,0,.178.147l.232.112.214.049a.5.5,0,0,0,.452-.286l.007-.014-1.082-.007m29.031-.131a.5.5,0,0,0-.2.04l-.224.094a.5.5,0,0,0,.191.962l.19-.037.237-.1a.5.5,0,0,0-.2-.959m2.533-.54-1.2.075a.5.5,0,0,0,.484.627l.222-.052.227-.115a.5.5,0,0,0,.267-.535" fill="#ababab"/><path d="M54.287,118.476a.5.5,0,0,0-.321.117l-.191.159a.5.5,0,0,0,.641.768l.193-.161a.5.5,0,0,0-.322-.883m1.726-1.443a.5.5,0,0,0-.32.116l-.19.159a.5.5,0,0,0,.64.769l.193-.161a.5.5,0,0,0-.323-.883m1.039-.733a.5.5,0,0,0,.818.334l.192-.161a.5.5,0,0,0,.125-.158l-1.135-.016" fill="#ababab"/><path d="M112.692,118.418a.5.5,0,0,0-.322.883l.193.161a.5.5,0,0,0,.641-.768l-.191-.159a.5.5,0,0,0-.321-.116m-1.727-1.443a.5.5,0,0,0-.322.883l.193.161a.5.5,0,0,0,.641-.768l-.191-.159a.5.5,0,0,0-.32-.117m-1.726-1.442a.5.5,0,0,0-.322.883l.193.161a.5.5,0,0,0,.641-.769l-.191-.159a.5.5,0,0,0-.32-.116m-1.128-.493-.748.078.02.017a.5.5,0,0,0,.7-.064l.024-.031" fill="#ababab"/><rect x="130.081" y="110.307" width="28.298" height="1" transform="translate(-36.108 134.44) rotate(-45)" fill="#343942"/><rect x="44.573" y="76.013" width="4.416" height="0.996" fill="#343942"/><rect x="44.614" y="82.015" width="4.385" height="0.996" fill="#343942"/><rect x="44.619" y="106.016" width="4.385" height="0.996" fill="#343942"/><rect x="44.619" y="100.006" width="4.385" height="0.996" fill="#343942"/><rect x="44.619" y="94.019" width="4.385" height="0.996" fill="#343942"/><rect x="44.619" y="88.005" width="4.385" height="0.996" fill="#343942"/><rect x="58.998" y="64.01" width="0.996" height="4.385" fill="#343942"/><rect x="94.996" y="64.004" width="0.996" height="4.416" fill="#343942"/><rect x="88.993" y="64.004" width="0.996" height="4.385" fill="#343942"/><rect x="64.993" y="64.01" width="0.996" height="4.385" fill="#343942"/><rect x="71.003" y="64.01" width="0.996" height="4.385" fill="#343942"/><rect x="76.989" y="64.01" width="0.996" height="4.385" fill="#343942"/><rect x="83.003" y="64.01" width="0.996" height="4.385" fill="#343942"/><rect x="107" y="64.003" width="0.996" height="4.385" fill="#343942"/><rect x="101.011" y="64.009" width="0.996" height="4.385" fill="#343942"/></svg>